<?xml version="1.0" encoding="UTF-8" standalone="no"?>
<svg width="500px" height="198px" viewBox="0 0 500 198" version="1.1" xmlns="http://www.w3.org/2000/svg" xmlns:xlink="http://www.w3.org/1999/xlink" xmlns:sketch="http://www.bohemiancoding.com/sketch/ns">
    <!-- Generator: Sketch 3.0.4 (8053) - http://www.bohemiancoding.com/sketch -->
    <title>OOCSS</title>
    <desc>Created with Sketch.</desc>
    <defs></defs>
    <g id="Page-1" stroke="none" stroke-width="1" fill="none" fill-rule="evenodd" sketch:type="MSPage">
        <path d="M49.2492491,46.2439127 C19.2479816,46.2439127 -0.0211251435,66.8545396 -0.0211251435,99.0510218 C-0.0211251435,131.36946 19.2479816,152.224 49.1272928,152.224 C78.7626912,152.224 98.397667,130.881635 98.397667,98.6851527 C98.397667,66.7325832 79.2505166,46.2439127 49.2492491,46.2439127 Z M49.2492491,131.125548 C34.3705718,131.125548 25.2238439,118.807954 25.2238439,98.9290654 C25.2238439,79.2940896 34.3705718,67.2204087 49.2492491,67.2204087 C64.0059701,67.2204087 73.0307417,79.1721332 73.0307417,98.9290654 C73.0307417,118.92991 64.0059701,131.125548 49.2492491,131.125548 Z M156.814769,46.2439127 C126.813502,46.2439127 107.544395,66.8545396 107.544395,99.0510218 C107.544395,131.36946 126.813502,152.224 156.692813,152.224 C186.328211,152.224 205.963187,130.881635 205.963187,98.6851527 C205.963187,66.7325832 186.816037,46.2439127 156.814769,46.2439127 Z M156.814769,131.125548 C141.936092,131.125548 132.789364,118.807954 132.789364,98.9290654 C132.789364,79.2940896 141.936092,67.2204087 156.814769,67.2204087 C171.57149,67.2204087 180.596262,79.1721332 180.596262,98.9290654 C180.596262,118.92991 171.57149,131.125548 156.814769,131.125548 Z M308.40654,78.9282204 C306.821107,71.7327945 304.747848,67.2204087 300.845245,62.2201975 C292.91808,51.6099931 280.600487,46.2439127 264.868115,46.2439127 C250.599219,46.2439127 238.281626,50.7562985 229.866636,58.9273754 C220.232083,68.4399724 215.109915,82.4649552 215.109915,99.0510218 C215.109915,115.393176 220.232083,129.662071 229.256854,138.808799 C237.915757,147.589658 250.477263,152.224 265.35594,152.224 C280.112661,152.224 291.942429,147.589658 299.503724,138.930755 C304.625892,132.954893 307.308932,126.979031 309.626103,116.612739 L284.259178,112.832092 C283.52744,117.954259 282.673745,120.393387 280.600487,123.32034 C277.063752,128.198595 271.331803,131.003591 264.624202,131.003591 C249.501612,131.003591 240.47684,118.92991 240.47684,99.0510218 C240.47684,78.9282204 249.135743,67.2204087 264.01442,67.2204087 C274.502668,67.2204087 280.966356,72.7084455 283.283527,83.8064753 L308.40654,78.9282204 Z M318.163049,119.29578 C319.016744,124.905773 319.626526,127.710769 320.84609,130.637722 C323.407173,137.589235 327.919559,142.833359 334.017378,146.248138 C340.603022,150.028785 350.847357,152.224 361.213649,152.224 C375.482544,152.224 386.214705,148.687265 393.288175,141.857708 C398.898168,136.369672 401.825121,128.564464 401.825121,119.417736 C401.825121,108.19775 397.434691,100.026673 388.653832,94.5386361 C384.01949,91.6116831 378.165584,89.5384248 368.8969,87.5871228 C354.506048,84.6601699 354.506048,84.6601699 352.066921,83.5625626 C348.164317,81.733217 346.334971,79.1721332 346.334971,75.7573548 C346.334971,70.1473617 351.823008,66.1228014 359.262347,66.1228014 C368.531031,66.1228014 372.92146,69.4156234 374.384937,77.3427876 L400.239688,74.537791 C398.654255,67.5862778 397.190778,63.9275867 394.141869,59.9030264 C387.556225,50.7562985 375.726457,46 360.237998,46 C336.212592,46 321.090002,57.8297681 321.090002,76.6110494 C321.090002,86.4895155 325.236519,94.6605924 332.91977,100.026673 C337.432156,103.197538 341.33476,104.661015 352.554746,107.100142 C365.238209,110.027095 368.287118,110.88079 370.848202,112.100354 C374.019068,113.56383 375.97037,116.856652 375.97037,120.6373 C375.97037,127.466856 370.360377,131.613373 360.969736,131.613373 C354.749961,131.613373 349.627793,129.540115 346.70084,125.881424 C344.871495,123.442296 344.0178,121.247082 343.529975,116.856652 L318.163049,119.29578 Z M411.337718,119.29578 C412.191412,124.905773 412.801194,127.710769 414.020758,130.637722 C416.581842,137.589235 421.094227,142.833359 427.192046,146.248138 C433.77769,150.028785 444.022025,152.224 454.388317,152.224 C468.657212,152.224 479.389373,148.687265 486.462843,141.857708 C492.072836,136.369672 494.999789,128.564464 494.999789,119.417736 C494.999789,108.19775 490.609359,100.026673 481.828501,94.5386361 C477.194158,91.6116831 471.340253,89.5384248 462.071568,87.5871228 C447.680716,84.6601699 447.680716,84.6601699 445.241589,83.5625626 C441.338985,81.733217 439.509639,79.1721332 439.509639,75.7573548 C439.509639,70.1473617 444.997676,66.1228014 452.437015,66.1228014 C461.705699,66.1228014 466.096129,69.4156234 467.559605,77.3427876 L493.414356,74.537791 C491.828923,67.5862778 490.365447,63.9275867 487.316537,59.9030264 C480.730893,50.7562985 468.901125,46 453.412666,46 C429.387261,46 414.26467,57.8297681 414.26467,76.6110494 C414.26467,86.4895155 418.411187,94.6605924 426.094439,100.026673 C430.606824,103.197538 434.509428,104.661015 445.729414,107.100142 C458.412877,110.027095 461.461786,110.88079 464.02287,112.100354 C467.193736,113.56383 469.145038,116.856652 469.145038,120.6373 C469.145038,127.466856 463.535045,131.613373 454.144404,131.613373 C447.924629,131.613373 442.802462,129.540115 439.875509,125.881424 C438.046163,123.442296 437.192468,121.247082 436.704643,116.856652 L411.337718,119.29578 Z" id="OOCSS" fill="#5A5A5A" sketch:type="MSShapeGroup"></path>
    </g>
</svg>